<svg width="1600" height="1040" viewBox="0 0 1600 1040" fill="none" xmlns="http://www.w3.org/2000/svg">
  <rect width="1600" height="1040" fill="#EEF3F7"/>
  <rect x="24" y="24" width="1552" height="992" rx="28" fill="#F8FBFD" stroke="#D6E1E8"/>

  <rect x="48" y="48" width="256" height="944" rx="24" fill="#0F172A"/>
  <text x="84" y="102" fill="#F8FAFC" font-family="Segoe UI, Arial, sans-serif" font-size="34" font-weight="700">Dispatch Hub</text>
  <text x="84" y="132" fill="#94A3B8" font-family="Segoe UI, Arial, sans-serif" font-size="18">Technician Schedule</text>

  <rect x="72" y="176" width="208" height="52" rx="14" fill="#1D4ED8"/>
  <text x="104" y="209" fill="#FFFFFF" font-family="Segoe UI, Arial, sans-serif" font-size="19" font-weight="700">+ New Appointment</text>

  <text x="72" y="286" fill="#94A3B8" font-family="Segoe UI, Arial, sans-serif" font-size="15" font-weight="700" letter-spacing="1">TEAM</text>

  <rect x="72" y="310" width="208" height="94" rx="18" fill="#111C34"/>
  <circle cx="102" cy="342" r="8" fill="#0EA5A4"/>
  <text x="120" y="348" fill="#F8FAFC" font-family="Segoe UI, Arial, sans-serif" font-size="20" font-weight="700">Andre</text>
  <text x="120" y="374" fill="#94A3B8" font-family="Segoe UI, Arial, sans-serif" font-size="16">4 jobs today</text>
  <text x="120" y="396" fill="#CBD5E1" font-family="Segoe UI, Arial, sans-serif" font-size="15">North route</text>

  <rect x="72" y="420" width="208" height="94" rx="18" fill="#111C34"/>
  <circle cx="102" cy="452" r="8" fill="#F59E0B"/>
  <text x="120" y="458" fill="#F8FAFC" font-family="Segoe UI, Arial, sans-serif" font-size="20" font-weight="700">Maya</text>
  <text x="120" y="484" fill="#94A3B8" font-family="Segoe UI, Arial, sans-serif" font-size="16">3 jobs today</text>
  <text x="120" y="506" fill="#CBD5E1" font-family="Segoe UI, Arial, sans-serif" font-size="15">Install crew</text>

  <rect x="72" y="530" width="208" height="94" rx="18" fill="#111C34"/>
  <circle cx="102" cy="562" r="8" fill="#8B5CF6"/>
  <text x="120" y="568" fill="#F8FAFC" font-family="Segoe UI, Arial, sans-serif" font-size="20" font-weight="700">Luis</text>
  <text x="120" y="594" fill="#94A3B8" font-family="Segoe UI, Arial, sans-serif" font-size="16">2 jobs today</text>
  <text x="120" y="616" fill="#CBD5E1" font-family="Segoe UI, Arial, sans-serif" font-size="15">Emergency calls</text>

  <text x="72" y="694" fill="#94A3B8" font-family="Segoe UI, Arial, sans-serif" font-size="15" font-weight="700" letter-spacing="1">FILTERS</text>
  <rect x="72" y="718" width="208" height="46" rx="12" fill="#111C34"/>
  <text x="92" y="747" fill="#E2E8F0" font-family="Segoe UI, Arial, sans-serif" font-size="16">All technicians</text>
  <rect x="72" y="776" width="208" height="46" rx="12" fill="#111C34"/>
  <text x="92" y="805" fill="#E2E8F0" font-family="Segoe UI, Arial, sans-serif" font-size="16">Scheduled + in progress</text>
  <rect x="72" y="834" width="208" height="46" rx="12" fill="#111C34"/>
  <text x="92" y="863" fill="#E2E8F0" font-family="Segoe UI, Arial, sans-serif" font-size="16">This week</text>

  <rect x="328" y="48" width="1224" height="100" rx="24" fill="#FFFFFF" stroke="#DCE6EC"/>
  <text x="364" y="92" fill="#0F172A" font-family="Segoe UI, Arial, sans-serif" font-size="32" font-weight="700">Technician Schedule</text>
  <text x="364" y="121" fill="#64748B" font-family="Segoe UI, Arial, sans-serif" font-size="18">Daily dispatch board with Outlook-style time grid, technician columns, and route-aware cards</text>

  <rect x="1226" y="70" width="132" height="44" rx="14" fill="#E0F2FE"/>
  <text x="1258" y="98" fill="#075985" font-family="Segoe UI, Arial, sans-serif" font-size="17" font-weight="700">Day</text>
  <rect x="1368" y="70" width="132" height="44" rx="14" fill="#F8FAFC" stroke="#DCE6EC"/>
  <text x="1397" y="98" fill="#334155" font-family="Segoe UI, Arial, sans-serif" font-size="17" font-weight="700">Week</text>

  <rect x="328" y="168" width="1224" height="88" rx="22" fill="#FFFFFF" stroke="#DCE6EC"/>
  <text x="364" y="204" fill="#64748B" font-family="Segoe UI, Arial, sans-serif" font-size="15" font-weight="700" letter-spacing="1">DATE</text>
  <text x="364" y="236" fill="#0F172A" font-family="Segoe UI, Arial, sans-serif" font-size="28" font-weight="700">Wednesday, April 3</text>
  <rect x="1250" y="188" width="124" height="48" rx="14" fill="#F8FAFC" stroke="#DCE6EC"/>
  <text x="1288" y="218" fill="#334155" font-family="Segoe UI, Arial, sans-serif" font-size="17" font-weight="700">Today</text>
  <rect x="1386" y="188" width="130" height="48" rx="14" fill="#0F766E"/>
  <text x="1418" y="218" fill="#FFFFFF" font-family="Segoe UI, Arial, sans-serif" font-size="17" font-weight="700">Optimize Route</text>

  <rect x="328" y="276" width="1224" height="692" rx="24" fill="#FFFFFF" stroke="#DCE6EC"/>

  <rect x="328" y="276" width="1224" height="76" rx="24" fill="#F8FBFD"/>
  <line x1="328" y1="352" x2="1552" y2="352" stroke="#DCE6EC"/>
  <line x1="432" y1="276" x2="432" y2="968" stroke="#DCE6EC"/>
  <line x1="805" y1="276" x2="805" y2="968" stroke="#DCE6EC"/>
  <line x1="1178" y1="276" x2="1178" y2="968" stroke="#DCE6EC"/>

  <text x="474" y="318" fill="#0F172A" font-family="Segoe UI, Arial, sans-serif" font-size="22" font-weight="700">Andre</text>
  <text x="474" y="340" fill="#64748B" font-family="Segoe UI, Arial, sans-serif" font-size="15">Maintenance / North zone</text>
  <circle cx="450" cy="318" r="9" fill="#0EA5A4"/>

  <text x="847" y="318" fill="#0F172A" font-family="Segoe UI, Arial, sans-serif" font-size="22" font-weight="700">Maya</text>
  <text x="847" y="340" fill="#64748B" font-family="Segoe UI, Arial, sans-serif" font-size="15">Install crew / East side</text>
  <circle cx="823" cy="318" r="9" fill="#F59E0B"/>

  <text x="1220" y="318" fill="#0F172A" font-family="Segoe UI, Arial, sans-serif" font-size="22" font-weight="700">Luis</text>
  <text x="1220" y="340" fill="#64748B" font-family="Segoe UI, Arial, sans-serif" font-size="15">Emergency / Float</text>
  <circle cx="1196" cy="318" r="9" fill="#8B5CF6"/>

  <text x="358" y="396" fill="#64748B" font-family="Segoe UI, Arial, sans-serif" font-size="18">8 AM</text>
  <text x="358" y="484" fill="#64748B" font-family="Segoe UI, Arial, sans-serif" font-size="18">9 AM</text>
  <text x="350" y="572" fill="#64748B" font-family="Segoe UI, Arial, sans-serif" font-size="18">10 AM</text>
  <text x="350" y="660" fill="#64748B" font-family="Segoe UI, Arial, sans-serif" font-size="18">11 AM</text>
  <text x="350" y="748" fill="#64748B" font-family="Segoe UI, Arial, sans-serif" font-size="18">12 PM</text>
  <text x="358" y="836" fill="#64748B" font-family="Segoe UI, Arial, sans-serif" font-size="18">1 PM</text>
  <text x="358" y="924" fill="#64748B" font-family="Segoe UI, Arial, sans-serif" font-size="18">2 PM</text>

  <line x1="328" y1="440" x2="1552" y2="440" stroke="#E8EEF2"/>
  <line x1="328" y1="528" x2="1552" y2="528" stroke="#E8EEF2"/>
  <line x1="328" y1="616" x2="1552" y2="616" stroke="#E8EEF2"/>
  <line x1="328" y1="704" x2="1552" y2="704" stroke="#E8EEF2"/>
  <line x1="328" y1="792" x2="1552" y2="792" stroke="#E8EEF2"/>
  <line x1="328" y1="880" x2="1552" y2="880" stroke="#E8EEF2"/>

  <rect x="454" y="392" width="328" height="150" rx="18" fill="#CCFBF1"/>
  <rect x="454" y="392" width="8" height="150" rx="4" fill="#0F766E"/>
  <text x="478" y="424" fill="#115E59" font-family="Segoe UI, Arial, sans-serif" font-size="18" font-weight="700">HVAC Tune-Up</text>
  <text x="478" y="452" fill="#115E59" font-family="Segoe UI, Arial, sans-serif" font-size="16">8:00 - 9:30 AM</text>
  <text x="478" y="478" fill="#134E4A" font-family="Segoe UI, Arial, sans-serif" font-size="16">Lakeside Dental</text>
  <text x="478" y="504" fill="#134E4A" font-family="Segoe UI, Arial, sans-serif" font-size="15">2 techs suggested • checklist attached</text>

  <rect x="454" y="606" width="328" height="116" rx="18" fill="#DBEAFE"/>
  <rect x="454" y="606" width="8" height="116" rx="4" fill="#2563EB"/>
  <text x="478" y="638" fill="#1D4ED8" font-family="Segoe UI, Arial, sans-serif" font-size="18" font-weight="700">Filter Replacement</text>
  <text x="478" y="666" fill="#1D4ED8" font-family="Segoe UI, Arial, sans-serif" font-size="16">10:30 - 11:45 AM</text>
  <text x="478" y="692" fill="#1E3A8A" font-family="Segoe UI, Arial, sans-serif" font-size="15">City Hall Annex</text>

  <rect x="827" y="454" width="328" height="208" rx="18" fill="#FEF3C7"/>
  <rect x="827" y="454" width="8" height="208" rx="4" fill="#D97706"/>
  <text x="851" y="486" fill="#B45309" font-family="Segoe UI, Arial, sans-serif" font-size="18" font-weight="700">New Rooftop Install</text>
  <text x="851" y="514" fill="#B45309" font-family="Segoe UI, Arial, sans-serif" font-size="16">9:00 AM - 11:30 AM</text>
  <text x="851" y="540" fill="#92400E" font-family="Segoe UI, Arial, sans-serif" font-size="16">Parkview Offices</text>
  <text x="851" y="566" fill="#92400E" font-family="Segoe UI, Arial, sans-serif" font-size="15">Lift rental confirmed</text>
  <rect x="851" y="586" width="110" height="32" rx="10" fill="#FFFFFF"/>
  <text x="876" y="607" fill="#92400E" font-family="Segoe UI, Arial, sans-serif" font-size="14" font-weight="700">In progress</text>

  <rect x="827" y="706" width="328" height="116" rx="18" fill="#FCE7F3"/>
  <rect x="827" y="706" width="8" height="116" rx="4" fill="#DB2777"/>
  <text x="851" y="738" fill="#BE185D" font-family="Segoe UI, Arial, sans-serif" font-size="18" font-weight="700">Quote Follow-Up</text>
  <text x="851" y="766" fill="#BE185D" font-family="Segoe UI, Arial, sans-serif" font-size="16">12:15 - 1:00 PM</text>
  <text x="851" y="792" fill="#9D174D" font-family="Segoe UI, Arial, sans-serif" font-size="15">Linked from new lead</text>

  <rect x="1200" y="392" width="328" height="92" rx="18" fill="#EDE9FE"/>
  <rect x="1200" y="392" width="8" height="92" rx="4" fill="#7C3AED"/>
  <text x="1224" y="424" fill="#6D28D9" font-family="Segoe UI, Arial, sans-serif" font-size="18" font-weight="700">Emergency Leak</text>
  <text x="1224" y="452" fill="#6D28D9" font-family="Segoe UI, Arial, sans-serif" font-size="16">8:20 - 9:00 AM</text>

  <rect x="1200" y="540" width="328" height="180" rx="18" fill="#FEE2E2"/>
  <rect x="1200" y="540" width="8" height="180" rx="4" fill="#DC2626"/>
  <text x="1224" y="572" fill="#B91C1C" font-family="Segoe UI, Arial, sans-serif" font-size="18" font-weight="700">No-Cooling Service Call</text>
  <text x="1224" y="600" fill="#B91C1C" font-family="Segoe UI, Arial, sans-serif" font-size="16">10:00 AM - 12:00 PM</text>
  <text x="1224" y="626" fill="#991B1B" font-family="Segoe UI, Arial, sans-serif" font-size="16">Briarwood Apartments</text>
  <text x="1224" y="652" fill="#991B1B" font-family="Segoe UI, Arial, sans-serif" font-size="15">Priority customer • tenant access note</text>

  <rect x="1200" y="764" width="328" height="92" rx="18" fill="#DCFCE7"/>
  <rect x="1200" y="764" width="8" height="92" rx="4" fill="#16A34A"/>
  <text x="1224" y="796" fill="#15803D" font-family="Segoe UI, Arial, sans-serif" font-size="18" font-weight="700">Buffer / On-Call Window</text>
  <text x="1224" y="824" fill="#15803D" font-family="Segoe UI, Arial, sans-serif" font-size="16">12:45 - 1:30 PM</text>

  <rect x="454" y="900" width="1074" height="44" rx="14" fill="#F8FAFC" stroke="#DCE6EC"/>
  <circle cx="482" cy="922" r="7" fill="#1D4ED8"/>
  <text x="498" y="928" fill="#334155" font-family="Segoe UI, Arial, sans-serif" font-size="15">Travel time overlays</text>
  <circle cx="688" cy="922" r="7" fill="#0F766E"/>
  <text x="704" y="928" fill="#334155" font-family="Segoe UI, Arial, sans-serif" font-size="15">Job cards resize to duration</text>
  <circle cx="936" cy="922" r="7" fill="#D97706"/>
  <text x="952" y="928" fill="#334155" font-family="Segoe UI, Arial, sans-serif" font-size="15">Lead-linked appointments</text>
  <circle cx="1176" cy="922" r="7" fill="#DC2626"/>
  <text x="1192" y="928" fill="#334155" font-family="Segoe UI, Arial, sans-serif" font-size="15">Conflict alerts</text>
</svg>
